<?xml version="1.0" encoding="utf-8"?>
<!-- Generator: Adobe Illustrator 27.9.0, SVG Export Plug-In . SVG Version: 6.00 Build 0)  -->
<svg version="1.1" id="Слой_1" xmlns="http://www.w3.org/2000/svg" xmlns:xlink="http://www.w3.org/1999/xlink" x="0px" y="0px"
	 viewBox="0 0 473 439" style="enable-background:new 0 0 473 439;" xml:space="preserve">
<style type="text/css">
	.st0{opacity:0.99;fill:#ED1C24;stroke:#534741;stroke-width:7;stroke-miterlimit:10;}
	.st1{opacity:0.82;fill:#ED1C24;stroke:#534741;stroke-width:7;stroke-miterlimit:10;}
	.st2{fill:none;stroke:#534741;stroke-width:7;stroke-miterlimit:10;}
</style>
<g>
	<path class="st0" d="M370.24,54.28c-9.47-4.77-22.03-2.19-27.22,7.71c-39.4,75.21-74.28,152.69-104.81,231.91
		c-1.5,3.88-2.97,7.78-4.44,11.67c-20.77-61.93-42.31-123.61-67.22-184.02c-9.54-23.14-19.58-46.07-30.13-68.77
		c-4.43-9.52-19.24-12.2-27.5-6.64c-9.82,6.61-11.37,17.31-6.64,27.5c2.15,4.63,4.29,9.27,6.39,13.93c1,2.2,1.99,4.4,2.97,6.61
		c0.11,0.25,0.24,0.54,0.39,0.9c0.64,1.46,1.29,2.92,1.93,4.38c4.23,9.65,8.36,19.33,12.4,29.06c7.96,19.16,15.58,38.46,22.94,57.85
		c14.84,39.13,28.61,78.65,41.99,118.3c7.56,22.4,14.99,44.84,22.42,67.28c2.67,8.07,10.67,14.88,19.57,14.3
		c9.36-0.6,15.97-6.37,18.99-15.06c6.84-19.63,13.94-39.17,21.33-58.6c3.7-9.71,7.46-19.4,11.3-29.06c0.1-0.25,0.57-1.43,0.85-2.12
		c0.28-0.69,0.65-1.62,0.74-1.84c0.94-2.34,1.88-4.67,2.83-7.01c2.01-4.96,4.05-9.91,6.1-14.86c15.93-38.4,32.96-76.35,51.07-113.77
		c10.15-20.98,20.65-41.79,31.47-62.44C382.8,72.23,380.06,59.22,370.24,54.28z"/>
	<g>
		<path class="st1" d="M349.73,372.62c-0.67-11-9.11-19.63-20.32-19.67l-136.11-0.44c-28.44-0.09-51.43-23.23-51.34-51.67l0.07-23
			c0.09-28.44,23.23-51.43,51.67-51.34l124.89,0.4c10.47,0.03,20.32-9.68,19.67-20.32c-0.67-11-9.11-19.63-20.32-19.67l-124.11-0.4
			c-28.44-0.09-51.43-23.23-51.34-51.67v0c0.09-28.44,23.23-51.43,51.67-51.34l113.89,0.37c10.47,0.03,20.32-9.68,19.67-20.32
			c-0.67-11-9.11-19.63-20.32-19.67l-188-0.61c-10.47-0.03-20.32,9.68-19.67,20.32c0.1,1.59,0.36,3.13,0.77,4.61
			c1.33,4.77,2.18,9.65,2.17,14.6l-0.36,112.34c-0.01,2.51-0.34,4.99-0.79,7.46c-0.24,1.31-0.33,2.65-0.24,4
			c0.05,0.74,0.13,1.46,0.24,2.17c0.43,2.61,0.73,5.23,0.72,7.87l-0.5,153.88c-0.04,0.69-0.05,1.38-0.01,2.07l-0.01,3
			c-0.03,10.47,9.68,20.32,20.32,19.67c1.59-0.1,3.13-0.36,4.61-0.77c4.77-1.33,9.65-2.18,14.6-2.17l188.8,0.61
			C340.53,392.98,350.38,383.27,349.73,372.62z"/>
	</g>
	<ellipse class="st2" cx="237" cy="219.14" rx="231" ry="212.86"/>
</g>
</svg>
